# xmcd
#
# Track frame offsets: 
#        150
#        24002
#        37201
#        57321
#        79445
#        92858
#        111537
#        132131
#        150321
#
# Disc length: 2244 seconds
#
# Revision: 0
# Processed by: cddbd v1.5.1PL0 Copyright (c) Steve Scherf et al.
# Submitted via: ExactAudioCopy v0.95a5
#
DISCID=7108c209
DTITLE=Kadison, Joshua - Painted Desert Serenade
DYEAR=2007
DGENRE=Blues
TTITLE0=Jessie
TTITLE1=Painted Desert Serenade
TTITLE2=Beau's All Night Radio Love Line
TTITLE3=Invisible Man
TTITLE4=Mama's Arms
TTITLE5=Beautiful In My Eyes
TTITLE6=Picture Postcards From L.A.
TTITLE7=When A Woman Cries
TTITLE8=Georgia Rain
EXTD=ISRAEL make peace !\nIf you live by the sword, you shall die by i
EXTD=t !!!
EXTT0=
EXTT1=
EXTT2=
EXTT3=
EXTT4=
EXTT5=
EXTT6=
EXTT7=
EXTT8=
PLAYORDER=
